<?xml version="1.0" encoding="utf-8"?>
<!-- Generator: Adobe Illustrator 27.4.1, SVG Export Plug-In . SVG Version: 6.00 Build 0)  -->
<svg version="1.1" id="Ebene_1" xmlns="http://www.w3.org/2000/svg" xmlns:xlink="http://www.w3.org/1999/xlink" x="0px" y="0px"
	 viewBox="0 0 264 41" style="enable-background:new 0 0 264 41;" xml:space="preserve">
<style type="text/css">
	.st0{fill:#6B00D7;}
</style>
<path class="st0" d="M5.9,31.4c0.7,0.4,1.5,0.7,2.3,1.1c0.8,0.3,1.7,0.6,2.6,0.8c0.9,0.2,1.8,0.3,2.7,0.5c0.9,0.1,1.8,0.1,2.6,0.1
	c1.9,0,3.5-0.2,5-0.7c1.5-0.5,2.8-1.2,3.9-2c1.1-0.9,1.9-1.9,2.6-3.1c0.7-1.2,1.1-2.6,1.2-4.1c-0.8,0.7-1.7,1.2-2.8,1.7
	c-1,0.5-2.1,0.9-3.2,1.2c-1.1,0.3-2.3,0.5-3.5,0.7c-1.2,0.1-2.4,0.2-3.6,0.2c-2.3,0-4.5-0.3-6.4-0.8c-1.9-0.6-3.5-1.4-4.9-2.4
	c-1.4-1.1-2.4-2.3-3.2-3.8c-0.7-1.5-1.1-3.2-1.1-5.1c0-1.9,0.4-3.6,1.1-5.2c0.7-1.6,1.9-3,3.3-4.2C6.2,4.8,8,3.8,10.2,3.2
	c2.2-0.7,4.6-1,7.5-1c2.8,0,5.3,0.4,7.6,1.1s4.2,1.8,5.9,3.3c1.6,1.5,2.9,3.4,3.8,5.7c0.9,2.3,1.4,5,1.4,8.2c0,3.4-0.5,6.4-1.5,8.9
	c-1,2.5-2.4,4.6-4.2,6.3c-1.8,1.7-3.8,2.9-6.2,3.8c-2.4,0.8-5,1.2-7.8,1.2c-1.2,0-2.4-0.1-3.6-0.2c-1.2-0.1-2.5-0.4-3.7-0.6
	C8,39.4,6.8,39,5.7,38.6c-1.1-0.4-2.2-0.9-3.1-1.5L5.9,31.4z M8,15.3c0,0.8,0.2,1.5,0.5,2.2c0.3,0.7,0.9,1.3,1.6,1.8
	c0.7,0.5,1.6,0.9,2.8,1.2c1.1,0.3,2.5,0.4,4,0.4c1.3,0,2.6-0.1,3.8-0.3c1.2-0.2,2.3-0.5,3.3-0.9c1-0.4,1.9-0.8,2.7-1.3
	c0.8-0.5,1.5-1,2.1-1.6c-0.4-2.6-1.5-4.6-3.4-5.9c-1.9-1.3-4.4-2-7.5-2c-1.6,0-3,0.2-4.2,0.5c-1.2,0.3-2.2,0.8-3.1,1.3
	c-0.8,0.6-1.5,1.2-1.9,2C8.2,13.5,8,14.4,8,15.3z M50.8,31.4c0.7,0.4,1.5,0.7,2.3,1.1c0.8,0.3,1.7,0.6,2.6,0.8
	c0.9,0.2,1.8,0.3,2.7,0.5c0.9,0.1,1.8,0.1,2.6,0.1c1.9,0,3.5-0.2,5-0.7c1.5-0.5,2.8-1.2,3.9-2c1.1-0.9,1.9-1.9,2.6-3.1
	c0.7-1.2,1.1-2.6,1.2-4.1C72.9,24.5,72,25,71,25.5c-1,0.5-2.1,0.9-3.2,1.2c-1.1,0.3-2.3,0.5-3.5,0.7c-1.2,0.1-2.4,0.2-3.6,0.2
	c-2.3,0-4.5-0.3-6.4-0.8c-1.9-0.6-3.5-1.4-4.9-2.4c-1.4-1.1-2.4-2.3-3.2-3.8c-0.7-1.5-1.1-3.2-1.1-5.1c0-1.9,0.4-3.6,1.1-5.2
	c0.7-1.6,1.9-3,3.3-4.2c1.5-1.2,3.3-2.1,5.4-2.8c2.2-0.7,4.6-1,7.5-1c2.8,0,5.3,0.4,7.6,1.1c2.3,0.7,4.2,1.8,5.9,3.3
	c1.6,1.5,2.9,3.4,3.8,5.7c0.9,2.3,1.4,5,1.4,8.2c0,3.4-0.5,6.4-1.5,8.9c-1,2.5-2.4,4.6-4.2,6.3c-1.8,1.7-3.8,2.9-6.2,3.8
	c-2.4,0.8-5,1.2-7.8,1.2c-1.2,0-2.4-0.1-3.6-0.2c-1.2-0.1-2.5-0.4-3.7-0.6c-1.2-0.3-2.4-0.6-3.6-1.1c-1.1-0.4-2.2-0.9-3.1-1.5
	L50.8,31.4z M52.8,15.3c0,0.8,0.2,1.5,0.5,2.2c0.3,0.7,0.9,1.3,1.6,1.8c0.7,0.5,1.6,0.9,2.8,1.2c1.1,0.3,2.5,0.4,4,0.4
	c1.3,0,2.6-0.1,3.8-0.3c1.2-0.2,2.3-0.5,3.3-0.9c1-0.4,1.9-0.8,2.7-1.3c0.8-0.5,1.5-1,2.1-1.6c-0.4-2.6-1.5-4.6-3.4-5.9
	c-1.9-1.3-4.4-2-7.5-2c-1.6,0-3,0.2-4.2,0.5c-1.2,0.3-2.2,0.8-3.1,1.3c-0.8,0.6-1.5,1.2-1.9,2C53,13.5,52.8,14.4,52.8,15.3z M91,2.6
	h13.7c4,0,7.5,0.4,10.4,1.3c3,0.9,5.4,2.1,7.3,3.7c1.9,1.6,3.4,3.5,4.3,5.8c1,2.3,1.4,4.8,1.4,7.7c0,2.7-0.5,5.2-1.4,7.5
	c-0.9,2.3-2.4,4.3-4.3,6c-1.9,1.7-4.4,3-7.3,3.9c-3,0.9-6.4,1.4-10.4,1.4L91,40V2.6z M106.6,33.4c2.3,0,4.3-0.3,6-0.9
	c1.7-0.6,3.1-1.4,4.3-2.5c1.1-1.1,2-2.4,2.6-3.9c0.6-1.5,0.9-3.2,0.9-5.1c0-1.8-0.3-3.5-0.9-5c-0.6-1.5-1.4-2.7-2.6-3.8
	c-1.1-1-2.6-1.8-4.3-2.4c-1.7-0.6-3.7-0.8-6-0.8h-8v24.2H106.6z M133.6,25.8c0-1.9,0.4-3.7,1.2-5.5c0.8-1.8,1.9-3.3,3.4-4.6
	c1.5-1.3,3.3-2.4,5.4-3.2c2.1-0.8,4.6-1.2,7.3-1.2c2.7,0,5.1,0.4,7.3,1.2c2.2,0.8,4,1.9,5.5,3.3c1.5,1.4,2.7,3.1,3.5,5
	c0.8,1.9,1.2,3.9,1.2,6.1c0,0.3,0,0.6,0,0.9c0,0.3,0,0.6,0,0.8h-26.7c0.3,0.8,0.8,1.6,1.5,2.3c0.7,0.7,1.5,1.3,2.6,1.8
	c1,0.5,2.2,0.9,3.5,1.2c1.3,0.3,2.8,0.4,4.5,0.4s3.2-0.2,4.9-0.5c1.6-0.4,3.2-0.8,4.6-1.3l2.4,5.4c-0.9,0.4-1.9,0.8-2.8,1.1
	c-0.9,0.3-1.9,0.6-3,0.8c-1,0.2-2.1,0.4-3.2,0.5c-1.1,0.1-2.3,0.2-3.5,0.2c-3.2,0-6-0.4-8.4-1.1c-2.4-0.8-4.4-1.8-6-3.1
	c-1.6-1.3-2.8-2.9-3.6-4.7C134,29.8,133.6,27.8,133.6,25.8z M160.8,23c-0.3-0.8-0.7-1.5-1.2-2.2c-0.5-0.7-1.2-1.3-2-1.8
	c-0.8-0.5-1.7-0.9-2.8-1.2c-1.1-0.3-2.2-0.4-3.5-0.4c-1.3,0-2.6,0.2-3.7,0.5c-1.1,0.3-2.1,0.7-2.9,1.2c-0.8,0.5-1.5,1.1-2.1,1.8
	c-0.5,0.7-0.9,1.4-1.2,2.1H160.8z M174.6,31.1c0-1.4,0.3-2.6,0.9-3.7c0.6-1.1,1.5-2.1,2.7-2.9c1.2-0.8,2.6-1.4,4.4-1.9
	c1.8-0.4,3.8-0.7,6.2-0.7c1.7,0,3.6,0.1,5.5,0.4c1.9,0.3,3.9,0.6,6,1.2c-0.1-0.9-0.4-1.7-0.8-2.5c-0.5-0.8-1.1-1.4-1.9-2
	c-0.8-0.6-1.8-1-3-1.3c-1.1-0.3-2.5-0.5-3.9-0.5c-0.8,0-1.7,0-2.6,0.1s-1.9,0.2-3,0.4c-1,0.2-2,0.4-3,0.7c-1,0.3-1.9,0.6-2.8,1
	l-2.2-5.8c1.1-0.4,2.2-0.7,3.4-1.1c1.2-0.3,2.5-0.6,3.8-0.8c1.3-0.2,2.6-0.4,3.8-0.6s2.5-0.2,3.7-0.2c5.3,0,9.2,1.3,11.8,4
	c2.6,2.7,3.9,6.8,3.9,12.4V40h-7.1v-2.7c-0.7,0.4-1.5,0.8-2.4,1.2c-0.9,0.4-1.8,0.7-2.8,1c-1,0.3-2.1,0.5-3.3,0.7
	c-1.2,0.2-2.4,0.3-3.7,0.3c-2.2,0-4.1-0.2-5.8-0.7c-1.7-0.5-3-1.1-4.2-2c-1.1-0.8-2-1.8-2.5-3C174.8,33.7,174.6,32.4,174.6,31.1z
	 M182,30.9c0,0.5,0.1,0.9,0.4,1.3c0.2,0.4,0.6,0.8,1.1,1.1c0.5,0.3,1.2,0.6,2,0.8c0.8,0.2,1.8,0.3,3,0.3c1.2,0,2.4-0.1,3.6-0.3
	c1.2-0.2,2.2-0.5,3.3-0.9c1-0.4,1.9-0.8,2.7-1.3c0.8-0.5,1.5-1,2-1.5v-1.2c-1.1-0.3-2.2-0.6-3.2-0.8c-1.1-0.2-2.1-0.4-3-0.5
	c-1-0.1-1.9-0.2-2.7-0.3c-0.8,0-1.6-0.1-2.2-0.1c-1.3,0-2.4,0.1-3.3,0.3c-0.9,0.2-1.6,0.4-2.1,0.7c-0.5,0.3-0.9,0.6-1.1,1
	C182.1,30,182,30.4,182,30.9z M216.8,0.3h7.1V40h-7.1V0.3z M234.1,31.3c1.9,1.1,4,2,6.3,2.5c2.3,0.5,4.6,0.8,7.1,0.8
	c1.6,0,3-0.1,4.1-0.3c1.1-0.2,2-0.5,2.6-0.9c0.7-0.4,1.1-0.7,1.4-1.2c0.3-0.4,0.4-0.9,0.4-1.4c0-0.7-0.3-1.2-0.9-1.7
	c-0.6-0.5-1.5-0.7-2.9-0.7c-0.6,0-1.3,0-2,0.1c-0.7,0.1-1.5,0.2-2.3,0.3c-0.8,0.1-1.6,0.2-2.5,0.2c-0.8,0.1-1.7,0.1-2.6,0.1
	c-1.9,0-3.5-0.2-4.9-0.6c-1.3-0.4-2.4-1-3.3-1.7c-0.8-0.7-1.5-1.6-1.8-2.5c-0.4-1-0.6-2-0.6-3.2c0-1.4,0.3-2.8,1-4
	c0.7-1.2,1.6-2.3,2.9-3.1c1.2-0.9,2.7-1.6,4.5-2.1c1.8-0.5,3.7-0.7,5.9-0.7c1.1,0,2.3,0.1,3.5,0.2c1.2,0.1,2.5,0.3,3.7,0.5
	c1.2,0.2,2.3,0.5,3.4,0.8c1.1,0.3,2.1,0.6,2.9,0.9l-2.2,5.5c-1.8-0.7-3.6-1.2-5.4-1.6c-1.8-0.4-3.6-0.6-5.5-0.6
	c-1.3,0-2.4,0.1-3.4,0.3c-0.9,0.2-1.7,0.5-2.2,0.8c-0.6,0.3-1,0.7-1.3,1.1c-0.3,0.4-0.4,0.9-0.4,1.3c0,0.3,0.1,0.6,0.2,0.9
	c0.1,0.3,0.4,0.5,0.7,0.7c0.3,0.2,0.7,0.3,1.2,0.5c0.5,0.1,1.1,0.1,1.9,0.1c0.7,0,1.4,0,2.1-0.1c0.8-0.1,1.5-0.2,2.3-0.2
	c0.8-0.1,1.7-0.2,2.5-0.3c0.9-0.1,1.8-0.1,2.7-0.1c1.7,0,3.2,0.2,4.4,0.6c1.3,0.4,2.3,1,3.2,1.7c0.8,0.7,1.5,1.6,1.9,2.5
	c0.4,1,0.6,2,0.6,3.2c0,1.5-0.3,2.9-1,4.1c-0.7,1.3-1.7,2.4-3.1,3.3c-1.4,0.9-3,1.7-5.1,2.2c-2,0.5-4.3,0.8-7,0.8
	c-1.6,0-3.2-0.1-4.7-0.3c-1.5-0.2-3-0.5-4.3-0.8c-1.4-0.4-2.7-0.8-3.9-1.2c-1.2-0.5-2.3-1-3.3-1.5L234.1,31.3z"/>
</svg>
