<svg width="264" height="41" viewBox="0 0 264 41" fill="none" xmlns="http://www.w3.org/2000/svg">
<path d="M5.9292 31.3628C6.61507 31.7616 7.3807 32.1125 8.22607 32.4155C9.07145 32.7186 9.94076 32.9738 10.834 33.1812C11.7432 33.3726 12.6523 33.5241 13.5615 33.6357C14.4867 33.7314 15.3639 33.7793 16.1934 33.7793C18.0436 33.7793 19.7104 33.54 21.1938 33.0615C22.6932 32.583 23.9852 31.9051 25.0698 31.0278C26.1545 30.1506 27.0158 29.1058 27.6538 27.8936C28.3078 26.6654 28.7145 25.3096 28.874 23.8262C28.0446 24.4801 27.1274 25.0464 26.1226 25.5249C25.1177 26.0034 24.049 26.4022 22.9165 26.7212C21.8 27.0243 20.6436 27.2555 19.4473 27.415C18.2669 27.5586 17.0786 27.6304 15.8823 27.6304C13.5535 27.6304 11.4321 27.3512 9.51807 26.793C7.61995 26.2347 5.993 25.4292 4.63721 24.3765C3.28141 23.3237 2.22868 22.0477 1.479 20.5483C0.74528 19.033 0.378418 17.3184 0.378418 15.4043C0.378418 13.5221 0.74528 11.7756 1.479 10.1646C2.22868 8.55355 3.32926 7.15788 4.78076 5.97754C6.23226 4.78125 8.03467 3.84814 10.188 3.17822C12.3413 2.49235 14.8376 2.14941 17.6768 2.14941C20.4362 2.14941 22.9564 2.50033 25.2373 3.20215C27.5182 3.90397 29.4722 4.99658 31.0991 6.47998C32.7261 7.96338 33.9862 9.85352 34.8794 12.1504C35.7886 14.4313 36.2432 17.1589 36.2432 20.333C36.2432 23.7305 35.7327 26.6973 34.7119 29.2334C33.707 31.7536 32.3193 33.8511 30.5488 35.5259C28.7943 37.2007 26.7207 38.4528 24.3281 39.2822C21.9355 40.1117 19.3516 40.5264 16.5762 40.5264C15.4118 40.5264 14.1995 40.4546 12.9395 40.311C11.6953 40.1675 10.4591 39.9521 9.23096 39.665C8.00277 39.3779 6.81445 39.019 5.66602 38.5884C4.53353 38.1577 3.49674 37.6632 2.55566 37.105L5.9292 31.3628ZM7.96289 15.2847C7.96289 16.0662 8.13037 16.8 8.46533 17.4858C8.80029 18.1717 9.31868 18.7699 10.0205 19.2803C10.7383 19.7747 11.6554 20.1735 12.772 20.4766C13.8885 20.7637 15.2363 20.9072 16.8154 20.9072C18.1393 20.9072 19.3914 20.8035 20.5718 20.5962C21.7521 20.3888 22.8447 20.1017 23.8496 19.7349C24.8545 19.368 25.7637 18.9373 26.5771 18.4429C27.4066 17.9484 28.1164 17.4061 28.7065 16.8159C28.3237 14.2 27.1753 12.2301 25.2612 10.9062C23.3472 9.56641 20.835 8.89648 17.7246 8.89648C16.1615 8.89648 14.7738 9.05599 13.5615 9.375C12.3493 9.69401 11.3285 10.1406 10.499 10.7148C9.6696 11.2731 9.03955 11.943 8.60889 12.7246C8.17822 13.5062 7.96289 14.3595 7.96289 15.2847ZM50.7661 31.3628C51.452 31.7616 52.2176 32.1125 53.063 32.4155C53.9084 32.7186 54.7777 32.9738 55.6709 33.1812C56.5801 33.3726 57.4893 33.5241 58.3984 33.6357C59.3236 33.7314 60.2008 33.7793 61.0303 33.7793C62.8805 33.7793 64.5474 33.54 66.0308 33.0615C67.5301 32.583 68.8221 31.9051 69.9067 31.0278C70.9914 30.1506 71.8527 29.1058 72.4907 27.8936C73.1447 26.6654 73.5514 25.3096 73.7109 23.8262C72.8815 24.4801 71.9644 25.0464 70.9595 25.5249C69.9546 26.0034 68.8859 26.4022 67.7534 26.7212C66.6369 27.0243 65.4805 27.2555 64.2842 27.415C63.1038 27.5586 61.9155 27.6304 60.7192 27.6304C58.3905 27.6304 56.269 27.3512 54.355 26.793C52.4569 26.2347 50.8299 25.4292 49.4741 24.3765C48.1183 23.3237 47.0656 22.0477 46.3159 20.5483C45.5822 19.033 45.2153 17.3184 45.2153 15.4043C45.2153 13.5221 45.5822 11.7756 46.3159 10.1646C47.0656 8.55355 48.1662 7.15788 49.6177 5.97754C51.0692 4.78125 52.8716 3.84814 55.0249 3.17822C57.1782 2.49235 59.6745 2.14941 62.5137 2.14941C65.2731 2.14941 67.7933 2.50033 70.0742 3.20215C72.3551 3.90397 74.3091 4.99658 75.936 6.47998C77.563 7.96338 78.8231 9.85352 79.7163 12.1504C80.6255 14.4313 81.0801 17.1589 81.0801 20.333C81.0801 23.7305 80.5697 26.6973 79.5488 29.2334C78.5439 31.7536 77.1562 33.8511 75.3857 35.5259C73.6312 37.2007 71.5576 38.4528 69.165 39.2822C66.7725 40.1117 64.1885 40.5264 61.4131 40.5264C60.2487 40.5264 59.0365 40.4546 57.7764 40.311C56.5322 40.1675 55.2961 39.9521 54.0679 39.665C52.8397 39.3779 51.6514 39.019 50.5029 38.5884C49.3704 38.1577 48.3337 37.6632 47.3926 37.105L50.7661 31.3628ZM52.7998 15.2847C52.7998 16.0662 52.9673 16.8 53.3022 17.4858C53.6372 18.1717 54.1556 18.7699 54.8574 19.2803C55.5752 19.7747 56.4924 20.1735 57.6089 20.4766C58.7254 20.7637 60.0732 20.9072 61.6523 20.9072C62.9762 20.9072 64.2284 20.8035 65.4087 20.5962C66.589 20.3888 67.6816 20.1017 68.6865 19.7349C69.6914 19.368 70.6006 18.9373 71.4141 18.4429C72.2435 17.9484 72.9533 17.4061 73.5435 16.8159C73.1606 14.2 72.0122 12.2301 70.0981 10.9062C68.1841 9.56641 65.6719 8.89648 62.5615 8.89648C60.9984 8.89648 59.6107 9.05599 58.3984 9.375C57.1862 9.69401 56.1654 10.1406 55.3359 10.7148C54.5065 11.2731 53.8765 11.943 53.4458 12.7246C53.0151 13.5062 52.7998 14.3595 52.7998 15.2847ZM90.9854 2.604H104.695C108.698 2.604 112.176 3.03467 115.126 3.896C118.077 4.75732 120.518 5.99349 122.448 7.60449C124.394 9.19954 125.837 11.1455 126.778 13.4424C127.735 15.7233 128.214 18.2913 128.214 21.1465C128.214 23.8581 127.743 26.3703 126.802 28.6831C125.861 30.98 124.426 32.9738 122.496 34.6646C120.566 36.3394 118.125 37.6553 115.174 38.6123C112.223 39.5534 108.746 40.0239 104.743 40.0239L90.9854 40V2.604ZM106.561 33.4443C108.826 33.4443 110.812 33.1572 112.519 32.583C114.225 31.9928 115.645 31.1634 116.777 30.0947C117.926 29.026 118.787 27.734 119.361 26.2188C119.936 24.7035 120.223 23.0127 120.223 21.1465C120.223 19.3122 119.936 17.6613 119.361 16.1938C118.787 14.7104 117.926 13.4583 116.777 12.4375C115.645 11.4007 114.225 10.6032 112.519 10.0449C110.812 9.48665 108.826 9.20752 106.561 9.20752H98.5698V33.4443H106.561ZM133.597 25.7881C133.597 23.874 133.988 22.0477 134.77 20.3091C135.551 18.5545 136.676 17.0073 138.143 15.6675C139.611 14.3276 141.405 13.259 143.526 12.4614C145.664 11.6639 148.088 11.2651 150.8 11.2651C153.495 11.2651 155.92 11.6719 158.073 12.4854C160.243 13.2829 162.077 14.3835 163.576 15.7871C165.091 17.1908 166.248 18.8416 167.045 20.7397C167.859 22.6379 168.266 24.6715 168.266 26.8408C168.266 27.112 168.258 27.4071 168.242 27.7261C168.242 28.0291 168.226 28.3083 168.194 28.5635H141.493C141.796 29.4089 142.282 30.1825 142.952 30.8843C143.638 31.5861 144.491 32.1922 145.512 32.7026C146.533 33.2131 147.713 33.6118 149.053 33.8989C150.393 34.1701 151.876 34.3057 153.503 34.3057C155.13 34.3057 156.749 34.1382 158.36 33.8032C159.971 33.4523 161.511 33.0137 162.978 32.4873L165.371 37.8945C164.445 38.3252 163.504 38.708 162.547 39.043C161.606 39.362 160.617 39.6331 159.581 39.8564C158.56 40.0638 157.483 40.2233 156.351 40.335C155.234 40.4466 154.054 40.5024 152.81 40.5024C149.635 40.5024 146.852 40.1196 144.459 39.354C142.067 38.5884 140.065 37.5436 138.454 36.2197C136.843 34.8958 135.631 33.3407 134.817 31.5542C134.004 29.7677 133.597 27.8457 133.597 25.7881ZM160.753 23.0366C160.498 22.255 160.099 21.5293 159.557 20.8594C159.03 20.1735 158.368 19.5833 157.571 19.0889C156.773 18.5785 155.848 18.1797 154.795 17.8926C153.743 17.6055 152.586 17.4619 151.326 17.4619C149.986 17.4619 148.766 17.6134 147.666 17.9165C146.565 18.2196 145.6 18.6263 144.771 19.1367C143.941 19.6471 143.247 20.2373 142.689 20.9072C142.147 21.5771 141.748 22.2869 141.493 23.0366H160.753ZM174.558 31.0996C174.558 29.7438 174.853 28.5076 175.443 27.3911C176.034 26.2746 176.919 25.3175 178.099 24.52C179.279 23.7065 180.747 23.0845 182.501 22.6538C184.272 22.2072 186.33 21.9839 188.674 21.9839C190.413 21.9839 192.239 22.1115 194.153 22.3667C196.083 22.6219 198.069 23.0127 200.111 23.5391C200.031 22.6458 199.76 21.8244 199.297 21.0747C198.835 20.3091 198.189 19.6551 197.359 19.1128C196.546 18.5545 195.557 18.1239 194.393 17.8208C193.244 17.5177 191.936 17.3662 190.469 17.3662C189.671 17.3662 188.794 17.4141 187.837 17.5098C186.88 17.6055 185.891 17.749 184.87 17.9404C183.849 18.1318 182.836 18.3711 181.832 18.6582C180.843 18.9453 179.917 19.2882 179.056 19.687L176.903 13.873C177.972 13.4902 179.112 13.1393 180.324 12.8203C181.552 12.5013 182.805 12.2301 184.081 12.0068C185.357 11.7676 186.633 11.5841 187.909 11.4565C189.185 11.3289 190.421 11.2651 191.617 11.2651C196.897 11.2651 200.821 12.613 203.389 15.3086C205.957 18.0042 207.241 22.1354 207.241 27.7021V40H200.159V37.3442C199.425 37.7749 198.619 38.1816 197.742 38.5645C196.881 38.9473 195.94 39.2822 194.919 39.5693C193.898 39.8564 192.798 40.0798 191.617 40.2393C190.453 40.4147 189.217 40.5024 187.909 40.5024C185.708 40.5024 183.77 40.2632 182.095 39.7847C180.436 39.3062 179.048 38.6442 177.932 37.7988C176.815 36.9535 175.97 35.9645 175.396 34.832C174.837 33.6836 174.558 32.4395 174.558 31.0996ZM182.023 30.8604C182.023 31.3229 182.143 31.7695 182.382 32.2002C182.621 32.6149 183.004 32.9897 183.53 33.3247C184.057 33.6437 184.727 33.9069 185.54 34.1143C186.369 34.3057 187.366 34.4014 188.531 34.4014C189.775 34.4014 190.979 34.2897 192.144 34.0664C193.308 33.8431 194.393 33.548 195.397 33.1812C196.402 32.8143 197.312 32.3916 198.125 31.9131C198.938 31.4346 199.616 30.9401 200.159 30.4297V29.1855C199.074 28.8825 197.997 28.6273 196.929 28.4199C195.876 28.2126 194.863 28.0531 193.89 27.9414C192.933 27.8138 192.024 27.7261 191.163 27.6782C190.317 27.6304 189.576 27.6064 188.938 27.6064C187.614 27.6064 186.513 27.6942 185.636 27.8696C184.758 28.0451 184.049 28.2843 183.506 28.5874C182.964 28.8745 182.581 29.2174 182.358 29.6162C182.135 30.015 182.023 30.4297 182.023 30.8604ZM216.811 0.307129H223.893V40H216.811V0.307129ZM234.109 31.3389C236.023 32.4873 238.129 33.3327 240.426 33.875C242.723 34.4173 245.075 34.6885 247.484 34.6885C249.111 34.6885 250.467 34.5768 251.551 34.3535C252.636 34.1302 253.505 33.8431 254.159 33.4922C254.813 33.1413 255.276 32.7425 255.547 32.2959C255.818 31.8493 255.954 31.3947 255.954 30.9321C255.954 30.2622 255.659 29.688 255.068 29.2095C254.494 28.731 253.537 28.4917 252.197 28.4917C251.575 28.4917 250.905 28.5316 250.188 28.6113C249.47 28.6911 248.712 28.7788 247.915 28.8745C247.133 28.9543 246.312 29.034 245.45 29.1138C244.605 29.1935 243.743 29.2334 242.866 29.2334C240.952 29.2334 239.317 29.026 237.961 28.6113C236.622 28.1966 235.529 27.6304 234.684 26.9126C233.838 26.1948 233.224 25.3494 232.841 24.3765C232.458 23.3875 232.267 22.3268 232.267 21.1943C232.267 19.7588 232.602 18.4349 233.272 17.2227C233.942 16.0104 234.899 14.9657 236.143 14.0884C237.387 13.1951 238.887 12.5013 240.641 12.0068C242.412 11.5124 244.382 11.2651 246.551 11.2651C247.683 11.2651 248.864 11.3369 250.092 11.4805C251.336 11.6081 252.556 11.7835 253.752 12.0068C254.949 12.2301 256.097 12.4933 257.198 12.7964C258.298 13.0835 259.271 13.3945 260.117 13.7295L257.892 19.2324C256.089 18.5625 254.287 18.0361 252.484 17.6533C250.698 17.2546 248.856 17.0552 246.958 17.0552C245.634 17.0552 244.509 17.1589 243.584 17.3662C242.675 17.5576 241.933 17.8208 241.359 18.1558C240.785 18.4748 240.362 18.8496 240.091 19.2803C239.836 19.695 239.708 20.1336 239.708 20.5962C239.708 20.9312 239.772 21.2342 239.899 21.5054C240.043 21.7765 240.266 22.0158 240.569 22.2231C240.888 22.4146 241.295 22.5661 241.79 22.6777C242.3 22.7734 242.922 22.8213 243.656 22.8213C244.326 22.8213 245.035 22.7814 245.785 22.7017C246.535 22.6219 247.316 22.5422 248.13 22.4624C248.943 22.3667 249.781 22.279 250.642 22.1992C251.519 22.1195 252.413 22.0796 253.322 22.0796C255.013 22.0796 256.488 22.279 257.748 22.6777C259.024 23.0765 260.077 23.6348 260.906 24.3525C261.736 25.0703 262.358 25.9157 262.772 26.8887C263.187 27.8617 263.395 28.9224 263.395 30.0708C263.395 31.5542 263.052 32.9339 262.366 34.21C261.68 35.486 260.659 36.5946 259.303 37.5356C257.947 38.4608 256.257 39.1865 254.231 39.7129C252.221 40.2393 249.892 40.5024 247.245 40.5024C245.618 40.5024 244.047 40.3988 242.531 40.1914C241.016 40 239.572 39.7368 238.201 39.4019C236.829 39.0509 235.537 38.6442 234.325 38.1816C233.128 37.7191 232.036 37.2246 231.047 36.6982L234.109 31.3389Z" fill="white"/>
</svg>
