<?xml version="1.0" encoding="utf-8"?>
<!-- Generator: Adobe Illustrator 27.5.0, SVG Export Plug-In . SVG Version: 6.00 Build 0)  -->
<svg version="1.1" id="Ebene_1" xmlns="http://www.w3.org/2000/svg" xmlns:xlink="http://www.w3.org/1999/xlink" x="0px" y="0px"
	 viewBox="0 0 560 516.3" style="enable-background:new 0 0 560 516.3;" xml:space="preserve">
<style type="text/css">
	.st0{fill:#6B00D7;}
</style>
<path class="st0" d="M429.3,184.9c4.7-1.2,8.6-4.5,10.5-8.9c0.1-0.3,0.2-0.6,0.3-0.9l5-15.7c1.2-3.1,1.4-6.4,0.6-9.6
	c-0.8-3.2-2.5-6.1-5-8.2c-31.3-26.6-68.8-45-109-53.5c-4.6,6.1-10.2,11.3-16.7,15.4c6.1,0.7,10.6,1.3,11.7,1.4
	c37.4,7.7,72.4,24.6,101.6,49.2l-4,12.5l0,0c-27.4-21.5-59.2-36.8-93.1-44.9c-4.7-1.1-9.4,1.8-10.5,6.5c-0.3,1.5-0.3,3,0.1,4.4v0.1
	v44.7l0,0c5.7-1.4,11.6-2.2,17.5-2.3v-33.4l0,0c28.1,8.3,54.4,22,77.3,40.3C419.6,185,424.6,186.1,429.3,184.9L429.3,184.9z"/>
<path class="st0" d="M118.5,145.7c-2.2,2.1-3.7,4.9-4.4,7.9c-0.7,3-0.5,6.1,0.6,9l4.3,14.9l0,0c0.1,0.3,0.2,0.6,0.3,0.9
	c1.9,4.7,6,8.2,10.9,9.4s10.1-0.2,13.9-3.5c22.9-20.3,50-35.2,79.4-43.5v34.5c5.9,0.3,11.8,1.3,17.5,2.8v-45.2
	c0-0.6-0.1-1.1-0.2-1.6c0.6-2.9-0.3-5.9-2.4-8c-2.1-2.1-5.1-2.9-8-2.3c-35.4,8-68.2,24.6-95.7,48.3l-3.4-11.5
	c28.3-26.7,63.5-44.9,101.7-52.6c1.1-0.2,5.6-0.8,11.8-1.4l0,0c-6.5-4.1-12.1-9.3-16.7-15.4C187,96.7,149,116.7,118.5,145.7
	L118.5,145.7z"/>
<path class="st0" d="M280,0L280,0c-12.7,0.1-24.9,5.2-33.9,14.2s-14,21.2-14,34c0,12.7,5,24.9,14,33.9c8.9,9,21.1,14.1,33.8,14.1
	l0,0c12.7,0,24.9-5.1,33.8-14.1c9-9,14-21.2,14-34c0-12.7-5-24.9-14-33.9C304.9,5.2,292.7,0.1,280,0L280,0z M301.4,69.8
	c-5.7,5.7-13.4,9-21.4,9l0,0c-8.1,0-15.8-3.2-21.4-8.9c-5.7-5.7-8.9-13.5-8.9-21.6s3.2-15.9,8.8-21.6c5.7-5.8,13.4-9,21.5-9.1l0,0
	c8.1,0.1,15.8,3.4,21.5,9.1c5.7,5.8,8.9,13.5,8.9,21.6C310.3,56.3,307.1,64.1,301.4,69.8L301.4,69.8z"/>
<path class="st0" d="M98.3,323.5c0.4,3.1,2.5,5.7,5.4,6.8c2.9,1.1,6.2,0.6,8.6-1.3c0.1,0,0.2-0.1,0.4-0.1l24.4-11l-1.2-1.7
	c-0.3-0.5-0.6-0.9-0.9-1.4l-1.7-2.9c-0.3-0.6-0.7-1.2-1-1.8c-1.3-2.5-2.4-5.1-3.4-7.7l-14.7,6.6l0,0c-2.8-29.5,0.1-59.3,8.6-87.7
	c1.4-4.7,0.5-9.7-2.3-13.7c-2.9-3.9-7.4-6.3-12.3-6.5c-0.3,0-0.6,0-0.9,0l-16.6,1.2l0,0c-3.3,0-6.5,1.1-9.2,3s-4.7,4.6-5.8,7.8
	c-13.2,39.6-16.3,81.9-9,122.9c7.4,2.1,14.4,5.5,20.6,10c-1.7-6.2-2.9-10.9-3.2-12c-7-38.1-4.3-77.4,7.8-114.2l13.5-1
	C95.4,252.9,93.1,288.6,98.3,323.5L98.3,323.5z"/>
<path class="st0" d="M119.5,422.4c-0.6-1-2.9-5.2-6-10.9c-1.3,7.6-4.1,14.8-8,21.4c23.7,35.7,56.8,64.1,95.7,82
	c2,0.9,4.2,1.4,6.5,1.4c4,0,7.8-1.5,10.7-4.1l12.4-9.7c0.2-0.2,0.5-0.4,0.7-0.6c3.7-3.5,5.4-8.6,4.6-13.7c-0.8-5-3.9-9.4-8.5-11.7
	c-28-14.1-52.4-34.3-71.4-59.2l44.7-22l-11.6-13.8l-47.1,23.2c-0.3,0.1-0.5,0.3-0.8,0.5c-3,0.5-5.5,2.4-6.6,5.2
	c-1.2,2.8-0.9,5.9,0.8,8.4c20.9,30.4,48.9,55.1,81.6,72.1l-9.7,7.6l0,0C171.6,481.7,141.2,455.4,119.5,422.4L119.5,422.4z"/>
<path class="st0" d="M48.6,447.8c9.5,0,18.8-2.8,26.7-8s14.1-12.7,17.9-21.4c5.1-11.8,5.2-25.1,0.4-37c-4.8-11.9-14.2-21.4-26-26.5
	c-11.8-5-25.2-5.2-37.1-0.4c-11.9,4.7-21.5,14-26.6,25.9c-5.1,11.8-5.2,25.2-0.4,37.1c3.6,9,9.9,16.7,17.9,22.1
	S38.9,447.8,48.6,447.8L48.6,447.8z M20,387.3c3.2-7.6,9.4-13.5,17-16.6c7.6-3,16.2-2.9,23.7,0.3c7.6,3.2,13.6,9.3,16.6,16.9
	c3.1,7.6,2.9,16.1-0.3,23.7c-3.2,7.5-9.4,13.5-17,16.5s-16.2,2.9-23.7-0.3c-7.6-3.2-13.6-9.3-16.6-16.9
	C16.6,403.3,16.7,394.8,20,387.3L20,387.3z"/>
<path class="st0" d="M472.7,346.1c6.2-4.5,13.2-7.9,20.6-10c7.3-41.1,4.2-83.3-9-122.9c-1.1-3.1-3.1-5.8-5.8-7.8
	c-2.7-1.9-5.9-3-9.2-3l-16.6-1.2c-0.3,0-0.6,0-0.9,0l0,0c-4.9,0.1-9.4,2.5-12.3,6.5c-2.9,3.9-3.7,9-2.3,13.7
	c8.5,28.4,11.4,58.2,8.6,87.7l-14.7-6.6c-1,2.6-2.1,5.2-3.4,7.7c-0.3,0.6-0.6,1.2-1,1.8l-1.7,2.9c-0.3,0.5-0.6,1-0.9,1.4l-1.2,1.7
	l24.4,11c0.1,0.1,0.2,0.1,0.4,0.1l0,0c2.4,2,5.7,2.5,8.6,1.3c2.9-1.1,5-3.8,5.4-6.8c5.2-34.9,2.8-70.6-7-104.5l13.5,1
	c12.1,36.8,14.8,76.1,7.8,114.2C475.7,335.2,474.5,339.9,472.7,346.1L472.7,346.1z"/>
<path class="st0" d="M450.7,425.3c-1.9-4.5-3.3-9.1-4.2-13.9c-3.1,5.7-5.4,9.9-6,10.9l0,0c-21.7,33-52.2,59.4-88,76.1l-9.7-7.6l0,0
	c32.7-16.9,60.8-41.7,81.6-72.1c1.7-2.5,2-5.6,0.8-8.4s-3.7-4.7-6.6-5.2c-0.3-0.2-0.5-0.3-0.8-0.5l-47.1-23.2l-11.6,13.8l44.7,22
	c-19,24.9-43.4,45.1-71.4,59.2c-4.6,2.3-7.7,6.6-8.5,11.7c-0.8,5,1,10.1,4.6,13.7c0.2,0.2,0.5,0.4,0.7,0.6l12.4,9.7
	c3,2.6,6.8,4.1,10.7,4.1c2.2,0,4.4-0.5,6.5-1.4c38.9-17.9,72-46.3,95.7-82C453.1,430.4,451.8,427.9,450.7,425.3L450.7,425.3z"/>
<path class="st0" d="M529.5,354.5c-11.9-4.8-25.3-4.6-37.1,0.4c-11.8,5-21.2,14.6-26,26.5c-5.9,14.9-4.1,31.8,4.9,45.1
	c9,13.3,24,21.3,40.1,21.3c9.7,0,19.2-2.9,27.2-8.3s14.3-13.1,17.9-22.1c4.8-11.9,4.6-25.3-0.4-37.1S541.4,359.2,529.5,354.5
	L529.5,354.5z M540.2,410.9L540.2,410.9c-3.1,7.6-9.1,13.7-16.6,16.9s-16.1,3.3-23.7,0.3c-9-3.6-15.8-11.2-18.4-20.5
	s-0.6-19.3,5.2-27c5.9-7.7,15-12.2,24.7-12.1c3.9,0,7.9,0.8,11.5,2.2c7.6,3,13.7,9,17,16.5C543.2,394.8,543.3,403.3,540.2,410.9
	L540.2,410.9z"/>
<path class="st0" d="M402.3,316.9l7.4-10.6c0.1-0.2,0.2-0.3,0.3-0.5l1.7-2.9c0.1-0.2,0.2-0.4,0.3-0.6c5.5-10.9,8.2-23,7.9-35.2
	c-1-39.8-34.5-72.5-76.1-74.5c-26.2-1.3-49,13.7-63.9,30.5c-14.9-16.9-37.6-31.9-63.9-30.5c-41.6,2-75.1,34.8-76.1,74.5l0,0
	c-0.3,12.2,2.4,24.3,7.9,35.2c0.1,0.2,0.2,0.4,0.3,0.6l1.7,2.9c0.1,0.2,0.2,0.3,0.3,0.5l7.4,10.6c0.2,0.2,0.6,0.7,0.7,0.9
	l111.9,132.9c2.5,2.7,6,4.3,9.7,4.3c3.8,0,7.4-1.7,9.9-4.5l112-132.9C402,317.4,402.2,317.2,402.3,316.9L402.3,316.9z"/>
</svg>
